<svg width="144" height="24" viewBox="0 0 144 24" fill="none" xmlns="http://www.w3.org/2000/svg">
<path fill-rule="evenodd" clip-rule="evenodd" d="M3.32031 19.8381L12.5838 12.4971C12.5838 12.6199 12.5838 12.7427 12.5838 12.8655V23.9998C9.07244 23.9998 5.69768 22.4852 3.32031 19.8381Z" fill="#58CFE5"/>
<path fill-rule="evenodd" clip-rule="evenodd" d="M23.2254 19.8381L13.9619 12.4971C13.9619 12.6199 13.9619 12.7427 13.9619 12.8655V23.9998C17.4733 23.9998 20.8481 22.4852 23.2254 19.8381Z" fill="#A6DA9C"/>
<path fill-rule="evenodd" clip-rule="evenodd" d="M15.3164 7.04083C17.3932 2.86546 21.6287 0 26.5474 0V11.1343C26.5474 12.5671 26.3151 14.0134 25.8369 15.3643L15.3164 7.04083Z" fill="#53C14F"/>
<path fill-rule="evenodd" clip-rule="evenodd" d="M23.2284 19.8391L13.9648 12.4981C14.0195 10.6014 14.4704 8.74569 15.3175 7.05371L25.8517 15.3772C25.2778 17.0282 24.3897 18.5428 23.2284 19.8391Z" fill="#8BCF6C"/>
<path fill-rule="evenodd" clip-rule="evenodd" d="M0 11.1343V0C5.04165 0 9.38649 3.0292 11.4086 7.40925L0.847107 15.76C0.286923 14.2727 0 12.7172 0 11.1343Z" fill="#00A2D4"/>
<path fill-rule="evenodd" clip-rule="evenodd" d="M3.31969 19.8378C2.25397 18.6507 1.42053 17.2726 0.84668 15.758L11.4082 7.40723C12.1323 9.00369 12.5422 10.7366 12.5969 12.4968L3.31969 19.8378Z" fill="#00BFF3"/>
<path d="M57.5882 15.1623V21.1252C57.5882 22.0804 56.8094 22.8445 55.8803 22.8445C54.9786 22.8445 54.1861 22.0804 54.1861 21.1252V15.1487C54.1861 12.7745 52.9701 11.792 51.4398 11.792C49.1171 11.792 48.2973 14.0162 48.229 14.753V14.7257V15.1487V21.1252C48.229 22.0804 47.4502 22.8445 46.5212 22.8445C45.6194 22.8445 44.8269 22.0804 44.8269 21.1252V15.1487C44.8269 12.7745 43.6109 11.792 42.0807 11.792C39.758 11.792 38.9792 14.0162 38.8699 14.753V21.1252C38.8699 22.0804 38.0911 22.8445 37.1756 22.8445C36.2466 22.8445 35.4678 22.0804 35.4678 21.1252V10.6186C35.4678 9.6634 36.2466 8.87199 37.1756 8.87199C38.0774 8.87199 38.8699 9.6634 38.8699 10.6186V11.9421C38.9928 11.0006 40.5231 8.83105 43.3103 8.83105C45.2505 8.83105 47.013 9.78621 47.7918 12.1468C48.5159 10.5094 50.1555 8.83105 52.6558 8.83105C55.2928 8.8447 57.5882 10.5913 57.5882 15.1623Z" fill="white"/>
<path d="M61.0049 5.29447C61.0049 4.38025 61.7973 3.5752 62.7401 3.5752C63.6418 3.5752 64.448 4.36661 64.448 5.29447C64.448 6.22233 63.6555 7.01374 62.7401 7.01374C61.811 7.01374 61.0049 6.22233 61.0049 5.29447ZM64.4206 10.6297V21.1091C64.4206 22.0915 63.6418 22.8829 62.7264 22.8829C61.7973 22.8829 61.0185 22.0915 61.0185 21.1091V10.6297C61.0185 9.67452 61.7973 8.88311 62.7264 8.88311C63.6555 8.89676 64.4206 9.68817 64.4206 10.6297Z" fill="white"/>
<path d="M80.5952 15.1594V21.1223C80.5952 22.0774 79.8164 22.8415 78.8874 22.8415C77.9856 22.8415 77.1931 22.0774 77.1931 21.1223V15.1457C77.1931 12.7715 75.9771 11.7891 74.4469 11.7891C72.1242 11.7891 71.3454 14.0132 71.2361 14.75V21.1223C71.2361 22.0774 70.4573 22.8415 69.5419 22.8415C68.6128 22.8415 67.834 22.0774 67.834 21.1223V10.6156C67.834 9.66044 68.6128 8.86903 69.5419 8.86903C70.4436 8.86903 71.2361 9.66044 71.2361 10.6156V11.9392C71.3454 10.984 72.862 8.81445 75.6629 8.81445C78.2862 8.84174 80.5952 10.5883 80.5952 15.1594Z" fill="white"/>
<path d="M91.3216 21.0006C91.3216 22.215 90.1602 22.8563 88.3977 22.8563C86.6352 22.8563 84.8453 22.2696 84.8453 18.5991V11.6947H84.0938C83.2604 11.6947 82.7275 11.1352 82.7275 10.3438C82.7275 9.52512 83.2741 8.96568 84.0938 8.96568H84.8453V7.16453C84.8453 6.20938 85.6241 5.41797 86.5532 5.41797C87.4823 5.41797 88.2474 6.20938 88.2474 7.16453V8.96568H89.9553C90.816 8.96568 91.3216 9.52512 91.3216 10.3438C91.3216 11.1352 90.8024 11.6947 89.9553 11.6947H88.2474V18.6946C88.2474 19.4587 88.507 19.8544 89.0808 19.8544C89.3678 19.8544 89.7777 19.7452 90.0646 19.7452C90.816 19.7043 91.3216 20.1819 91.3216 21.0006Z" fill="white"/>
<path d="M108.152 14.7335V21.7334C108.152 22.3201 107.66 22.8386 107.073 22.8386C106.485 22.8386 106.007 22.3201 106.007 21.7334V14.7335C106.007 11.8544 104.299 10.7764 102.482 10.7764C99.8452 10.7764 98.5063 13.0551 98.2603 14.5697V21.7607C98.2603 22.3474 97.7685 22.8659 97.1946 22.8659C96.6071 22.8659 96.1152 22.3474 96.1152 21.7607V4.92268C96.1152 4.33595 96.6071 3.84473 97.1946 3.84473C97.7685 3.84473 98.2603 4.34959 98.2603 4.92268V12.1546C98.4243 11.254 100.023 8.83881 103.097 8.83881C105.543 8.83881 108.152 10.3534 108.152 14.7335Z" fill="white"/>
<path d="M119.465 9.87586C119.465 10.5035 118.973 10.9402 118.057 10.9402C115.598 10.9402 113.958 12.9187 113.712 14.5698V21.7607C113.712 22.3611 113.221 22.8659 112.647 22.8659C112.059 22.8659 111.567 22.3611 111.567 21.7607V9.99867C111.567 9.39829 112.059 8.89342 112.647 8.89342C113.221 8.89342 113.712 9.39829 113.712 9.99867V12.1409C113.876 11.2404 115.53 8.8252 118.303 8.8252C119.041 8.83884 119.465 9.28913 119.465 9.87586Z" fill="white"/>
<path d="M144.003 14.7335V21.7334C144.003 22.3201 143.539 22.8386 142.938 22.8386C142.35 22.8386 141.858 22.3201 141.858 21.7334V14.7335C141.858 11.8544 140.164 10.7764 138.374 10.7764C135.737 10.7764 134.398 13.0552 134.152 14.5698V14.7471V21.747C134.152 22.3338 133.66 22.8523 133.073 22.8523C132.485 22.8523 132.007 22.3338 132.007 21.747V14.7471C132.007 11.868 130.299 10.7901 128.482 10.7901C125.845 10.7901 124.506 13.0688 124.26 14.5834V21.7743C124.26 22.3611 123.768 22.8796 123.195 22.8796C122.607 22.8796 122.115 22.3611 122.115 21.7743V9.99867C122.115 9.39829 122.607 8.89342 123.195 8.89342C123.768 8.89342 124.26 9.39829 124.26 9.99867V12.1409C124.424 11.2404 126.023 8.8252 129.097 8.8252C131.01 8.8252 133.032 9.73941 133.811 12.2637C134.535 10.6536 136.243 8.8252 138.962 8.8252C141.407 8.83884 144.003 10.3534 144.003 14.7335Z" fill="white"/>
</svg>
